<svg xmlns="http://www.w3.org/2000/svg" xmlns:xlink="http://www.w3.org/1999/xlink" width="188" height="69" viewBox="0 0 188 69">
  <defs>
    <style>
      .cls-1 {
        fill: #f3f0e1;
      }

      .cls-2 {
        fill: #232323;
      }

      .cls-3 {
        filter: url(#Rectangle_83);
      }
    </style>
    <filter id="Rectangle_83" x="0" y="0" width="188" height="69" filterUnits="userSpaceOnUse">
      <feOffset dy="5" input="SourceAlpha"/>
      <feGaussianBlur stdDeviation="5" result="blur"/>
      <feFlood flood-opacity="0.161"/>
      <feComposite operator="in" in2="blur"/>
      <feComposite in="SourceGraphic"/>
    </filter>
  </defs>
  <g id="create-account" transform="translate(-17 -51)">
    <g class="cls-3" transform="matrix(1, 0, 0, 1, 17, 51)">
      <rect id="Rectangle_83-2" data-name="Rectangle 83" class="cls-1" width="158" height="39" rx="19.5" transform="translate(15 10)"/>
    </g>
    <path id="Path_129" data-name="Path 129" class="cls-2" d="M-61.642-5.04a5.131,5.131,0,0,1,.322-1.785,5.139,5.139,0,0,1,.945-1.6,4.591,4.591,0,0,1,1.519-1.148A4.662,4.662,0,0,1-56.826-10a4.314,4.314,0,0,1,2.324.609,3.855,3.855,0,0,1,1.456,1.561L-54.278-7a2.648,2.648,0,0,0-.707-.952,2.532,2.532,0,0,0-.924-.49,3.579,3.579,0,0,0-.973-.14,2.863,2.863,0,0,0-1.372.315,3.045,3.045,0,0,0-.987.833,3.72,3.72,0,0,0-.6,1.162,4.264,4.264,0,0,0-.2,1.288,4.062,4.062,0,0,0,.238,1.379,3.827,3.827,0,0,0,.665,1.176,3.141,3.141,0,0,0,1.015.8,2.839,2.839,0,0,0,1.288.294,3.219,3.219,0,0,0,.994-.168,2.973,2.973,0,0,0,.959-.525,2.41,2.41,0,0,0,.693-.945l1.3.742a3.119,3.119,0,0,1-.959,1.26,4.673,4.673,0,0,1-1.456.784A5.044,5.044,0,0,1-56.9.084a4.173,4.173,0,0,1-1.918-.441,4.842,4.842,0,0,1-1.5-1.176,5.57,5.57,0,0,1-.98-1.652A5.165,5.165,0,0,1-61.642-5.04ZM-51.436,0V-9.94h4.326a2.716,2.716,0,0,1,1.232.28,3.23,3.23,0,0,1,.973.742,3.508,3.508,0,0,1,.644,1.036,3.123,3.123,0,0,1,.231,1.176,3.4,3.4,0,0,1-.238,1.26,2.962,2.962,0,0,1-.679,1.036,2.637,2.637,0,0,1-1.029.63L-43.638,0H-45.4l-2.156-3.458h-2.31V0Zm1.568-4.844h2.744a1.249,1.249,0,0,0,.77-.252,1.731,1.731,0,0,0,.532-.679,2.2,2.2,0,0,0,.2-.931,1.921,1.921,0,0,0-.224-.931,1.917,1.917,0,0,0-.581-.665,1.32,1.32,0,0,0-.777-.252h-2.66Zm14.5,3.458V0h-6.818V-9.94h6.692v1.386h-5.124v2.828h4.438v1.3h-4.438v3.038ZM-30.87-9.94h1.484L-25.522,0h-1.652l-1.05-2.7H-32.06L-33.1,0h-1.666Zm2.338,6.076-1.6-4.354L-31.78-3.864Zm10.6-4.69h-3.3V0H-22.82V-8.554h-3.318V-9.94h8.2Zm8.148,7.168V0H-16.6V-9.94h6.692v1.386h-5.124v2.828H-10.6v1.3h-4.438v3.038ZM-2.268-9.94H-.784L3.08,0H1.428L.378-2.7H-3.458L-4.494,0H-6.16ZM.07-3.864l-1.6-4.354L-3.178-3.864ZM3.3-5.04a5.131,5.131,0,0,1,.322-1.785,5.139,5.139,0,0,1,.945-1.6A4.591,4.591,0,0,1,6.09-9.569,4.662,4.662,0,0,1,8.12-10a4.314,4.314,0,0,1,2.324.609A3.855,3.855,0,0,1,11.9-7.826L10.668-7a2.648,2.648,0,0,0-.707-.952,2.532,2.532,0,0,0-.924-.49,3.579,3.579,0,0,0-.973-.14,2.863,2.863,0,0,0-1.372.315,3.045,3.045,0,0,0-.987.833,3.72,3.72,0,0,0-.6,1.162,4.264,4.264,0,0,0-.2,1.288,4.062,4.062,0,0,0,.238,1.379A3.827,3.827,0,0,0,5.8-2.429a3.141,3.141,0,0,0,1.015.8,2.839,2.839,0,0,0,1.288.294A3.219,3.219,0,0,0,9.1-1.5a2.973,2.973,0,0,0,.959-.525,2.41,2.41,0,0,0,.693-.945l1.3.742a3.119,3.119,0,0,1-.959,1.26,4.673,4.673,0,0,1-1.456.784A5.044,5.044,0,0,1,8.05.084,4.173,4.173,0,0,1,6.132-.357a4.842,4.842,0,0,1-1.5-1.176,5.57,5.57,0,0,1-.98-1.652A5.165,5.165,0,0,1,3.3-5.04Zm9.45,0a5.131,5.131,0,0,1,.322-1.785,5.139,5.139,0,0,1,.945-1.6A4.591,4.591,0,0,1,15.54-9.569,4.662,4.662,0,0,1,17.57-10a4.314,4.314,0,0,1,2.324.609A3.855,3.855,0,0,1,21.35-7.826L20.118-7a2.648,2.648,0,0,0-.707-.952,2.532,2.532,0,0,0-.924-.49,3.579,3.579,0,0,0-.973-.14,2.863,2.863,0,0,0-1.372.315,3.045,3.045,0,0,0-.987.833,3.72,3.72,0,0,0-.6,1.162,4.264,4.264,0,0,0-.2,1.288,4.062,4.062,0,0,0,.238,1.379,3.827,3.827,0,0,0,.665,1.176,3.141,3.141,0,0,0,1.015.8,2.839,2.839,0,0,0,1.288.294A3.219,3.219,0,0,0,18.55-1.5a2.973,2.973,0,0,0,.959-.525,2.41,2.41,0,0,0,.693-.945l1.3.742a3.119,3.119,0,0,1-.959,1.26,4.673,4.673,0,0,1-1.456.784A5.044,5.044,0,0,1,17.5.084a4.173,4.173,0,0,1-1.918-.441,4.842,4.842,0,0,1-1.5-1.176,5.57,5.57,0,0,1-.98-1.652A5.165,5.165,0,0,1,12.754-5.04ZM26.964.07a4.41,4.41,0,0,1-1.946-.42,4.669,4.669,0,0,1-1.5-1.141,5.317,5.317,0,0,1-.973-1.624A5.183,5.183,0,0,1,22.2-4.97a5.026,5.026,0,0,1,.364-1.9,5.328,5.328,0,0,1,1.008-1.61A4.812,4.812,0,0,1,25.1-9.6a4.388,4.388,0,0,1,1.9-.413,4.3,4.3,0,0,1,1.939.434,4.7,4.7,0,0,1,1.5,1.162A5.508,5.508,0,0,1,31.4-6.79a5.09,5.09,0,0,1,.343,1.834,5.113,5.113,0,0,1-.357,1.9,5.219,5.219,0,0,1-1,1.61A4.722,4.722,0,0,1,28.861-.336,4.451,4.451,0,0,1,26.964.07ZM23.8-4.97a4.186,4.186,0,0,0,.224,1.358,3.779,3.779,0,0,0,.637,1.169,2.994,2.994,0,0,0,1,.805,2.9,2.9,0,0,0,1.316.294,2.854,2.854,0,0,0,1.344-.308,2.935,2.935,0,0,0,.987-.833,3.912,3.912,0,0,0,.609-1.176,4.241,4.241,0,0,0,.21-1.309,4.244,4.244,0,0,0-.217-1.351,3.61,3.61,0,0,0-.637-1.162,3.089,3.089,0,0,0-1-.805,2.827,2.827,0,0,0-1.3-.294,2.854,2.854,0,0,0-1.344.308,3.041,3.041,0,0,0-.994.826,3.872,3.872,0,0,0-.623,1.162A4.1,4.1,0,0,0,23.8-4.97ZM37.506.07A4.494,4.494,0,0,1,35.5-.336a3.471,3.471,0,0,1-1.316-1.106,4.8,4.8,0,0,1-.728-1.6A7.429,7.429,0,0,1,33.222-4.9V-9.94H34.79V-4.9a6.146,6.146,0,0,0,.14,1.323,3.688,3.688,0,0,0,.448,1.141,2.243,2.243,0,0,0,.833.8,2.618,2.618,0,0,0,1.3.294,2.6,2.6,0,0,0,1.309-.3,2.225,2.225,0,0,0,.826-.812A3.9,3.9,0,0,0,40.082-3.6a5.984,5.984,0,0,0,.14-1.3V-9.94H41.8V-4.9a7.325,7.325,0,0,1-.245,1.925A4.606,4.606,0,0,1,40.8-1.393,3.563,3.563,0,0,1,39.48-.322,4.511,4.511,0,0,1,37.506.07Zm7.952-7.1V0H43.89V-9.94h1.288l5.628,7.182V-9.926h1.582V0H51.016ZM61.922-8.554h-3.3V0H57.036V-8.554H53.718V-9.94h8.2Z" transform="translate(111 86)"/>
  </g>
</svg>
