<svg xmlns="http://www.w3.org/2000/svg" xmlns:xlink="http://www.w3.org/1999/xlink" width="180" height="69" viewBox="0 0 180 69">
  <defs>
    <style>
      .cls-1 {
        fill: #f3f0e1;
      }

      .cls-2 {
        fill: #232323;
      }

      .cls-3 {
        filter: url(#Rectangle_83);
      }
    </style>
    <filter id="Rectangle_83" x="0" y="0" width="180" height="69" filterUnits="userSpaceOnUse">
      <feOffset dy="5" input="SourceAlpha"/>
      <feGaussianBlur stdDeviation="5" result="blur"/>
      <feFlood flood-opacity="0.161"/>
      <feComposite operator="in" in2="blur"/>
      <feComposite in="SourceGraphic"/>
    </filter>
  </defs>
  <g id="update" transform="translate(-17 -51)">
    <g class="cls-3" transform="matrix(1, 0, 0, 1, 17, 51)">
      <rect id="Rectangle_83-2" data-name="Rectangle 83" class="cls-1" width="150" height="39" rx="19.5" transform="translate(15 10)"/>
    </g>
    <path id="Path_131" data-name="Path 131" class="cls-2" d="M-47.265.075A4.815,4.815,0,0,1-49.417-.36a3.719,3.719,0,0,1-1.41-1.185,5.14,5.14,0,0,1-.78-1.71,7.96,7.96,0,0,1-.248-2v-5.4h1.68v5.4a6.585,6.585,0,0,0,.15,1.418,3.952,3.952,0,0,0,.48,1.222,2.4,2.4,0,0,0,.892.855,2.805,2.805,0,0,0,1.388.315,2.785,2.785,0,0,0,1.4-.322,2.384,2.384,0,0,0,.885-.87A4.176,4.176,0,0,0-44.5-3.855a6.412,6.412,0,0,0,.15-1.395v-5.4h1.7v5.4a7.848,7.848,0,0,1-.263,2.063,4.935,4.935,0,0,1-.81,1.695A3.818,3.818,0,0,1-45.15-.345,4.834,4.834,0,0,1-47.265.075ZM-40.425,0V-10.65h4.47a2.91,2.91,0,0,1,1.32.3,3.556,3.556,0,0,1,1.05.8,3.564,3.564,0,0,1,.69,1.11,3.438,3.438,0,0,1,.24,1.26,3.754,3.754,0,0,1-.4,1.688,3.328,3.328,0,0,1-1.125,1.3,2.927,2.927,0,0,1-1.687.495h-2.88V0Zm1.68-5.19h2.775a1.388,1.388,0,0,0,.84-.263,1.747,1.747,0,0,0,.563-.713,2.46,2.46,0,0,0,.2-1.02A2.166,2.166,0,0,0-34.6-8.22a1.841,1.841,0,0,0-.623-.7,1.5,1.5,0,0,0-.833-.247h-2.685ZM-31.08,0V-10.65h3.78a5.394,5.394,0,0,1,2.88.712,4.493,4.493,0,0,1,1.733,1.92A6.126,6.126,0,0,1-22.11-5.34a5.927,5.927,0,0,1-.637,2.82A4.531,4.531,0,0,1-24.555-.66,5.5,5.5,0,0,1-27.3,0Zm7.26-5.34a4.555,4.555,0,0,0-.412-1.987,3.179,3.179,0,0,0-1.185-1.35A3.458,3.458,0,0,0-27.3-9.165h-2.1v7.68h2.1A3.369,3.369,0,0,0-25.4-2a3.27,3.27,0,0,0,1.177-1.38A4.6,4.6,0,0,0-23.82-5.34Zm6.165-5.31h1.59L-11.925,0h-1.77L-14.82-2.895h-4.11L-20.04,0h-1.785Zm2.505,6.51-1.71-4.665L-18.63-4.14ZM-3.795-9.165h-3.54V0h-1.7V-9.165h-3.555V-10.65h8.79Zm8.73,7.68V0h-7.3V-10.65H4.8v1.485H-.69v3.03H4.065V-4.74H-.69v3.255ZM12.06-7.53V0H10.38V-10.65h1.38l6.03,7.695v-7.68h1.695V0h-1.47Zm12.9-3.12h1.59L30.69,0H28.92L27.795-2.895h-4.11L22.575,0H20.79Zm2.5,6.51-1.71-4.665L23.985-4.14ZM40.965,0V-7.59L37.83-1.83h-.99L33.69-7.59V0H32.01V-10.65h1.8l3.525,6.51,3.525-6.51h1.8V0Zm11.4-1.485V0h-7.3V-10.65h7.17v1.485H46.74v3.03H51.5V-4.74H46.74v3.255Z" transform="translate(107 86)"/>
  </g>
</svg>
