<svg xmlns="http://www.w3.org/2000/svg" xmlns:xlink="http://www.w3.org/1999/xlink" width="169" height="69" viewBox="0 0 169 69">
  <defs>
    <filter id="Rectangle_83" x="0" y="0" width="169" height="69" filterUnits="userSpaceOnUse">
      <feOffset dy="5" input="SourceAlpha"/>
      <feGaussianBlur stdDeviation="5" result="blur"/>
      <feFlood flood-opacity="0.161"/>
      <feComposite operator="in" in2="blur"/>
      <feComposite in="SourceGraphic"/>
    </filter>
  </defs>
  <g id="upload" transform="translate(-17 -51)">
    <g transform="matrix(1, 0, 0, 1, 17, 51)" filter="url(#Rectangle_83)">
      <rect id="Rectangle_83-2" data-name="Rectangle 83" width="139" height="39" rx="19.5" transform="translate(15 10)" fill="#f3f0e1"/>
    </g>
    <path id="Path_127" data-name="Path 127" d="M-47.692-5.4a5.5,5.5,0,0,1,.345-1.912,5.506,5.506,0,0,1,1.013-1.71,4.918,4.918,0,0,1,1.627-1.23,5,5,0,0,1,2.175-.458,4.622,4.622,0,0,1,2.49.653,4.13,4.13,0,0,1,1.56,1.672L-39.8-7.5a2.838,2.838,0,0,0-.757-1.02,2.713,2.713,0,0,0-.99-.525,3.835,3.835,0,0,0-1.042-.15,3.067,3.067,0,0,0-1.47.337,3.263,3.263,0,0,0-1.057.892,3.986,3.986,0,0,0-.645,1.245,4.568,4.568,0,0,0-.217,1.38,4.352,4.352,0,0,0,.255,1.478,4.1,4.1,0,0,0,.712,1.26,3.365,3.365,0,0,0,1.088.862,3.042,3.042,0,0,0,1.38.315,3.449,3.449,0,0,0,1.065-.18,3.185,3.185,0,0,0,1.028-.562,2.582,2.582,0,0,0,.742-1.013l1.4.8a3.342,3.342,0,0,1-1.028,1.35A5.007,5.007,0,0,1-40.9-.2a5.4,5.4,0,0,1-1.7.285,4.471,4.471,0,0,1-2.055-.472,5.188,5.188,0,0,1-1.6-1.26,5.968,5.968,0,0,1-1.05-1.77A5.534,5.534,0,0,1-47.692-5.4Zm19.68-5.25V0h-1.695V-4.695h-5.37V0h-1.68V-10.65h1.68v4.455h5.37V-10.65ZM-21.187.075a4.725,4.725,0,0,1-2.085-.45,5,5,0,0,1-1.6-1.222,5.7,5.7,0,0,1-1.042-1.74,5.553,5.553,0,0,1-.368-1.987,5.385,5.385,0,0,1,.39-2.033,5.709,5.709,0,0,1,1.08-1.725,5.156,5.156,0,0,1,1.627-1.2,4.7,4.7,0,0,1,2.033-.442,4.61,4.61,0,0,1,2.077.465,5.03,5.03,0,0,1,1.6,1.245,5.9,5.9,0,0,1,1.035,1.74,5.454,5.454,0,0,1,.368,1.965,5.478,5.478,0,0,1-.382,2.032,5.592,5.592,0,0,1-1.073,1.725A5.059,5.059,0,0,1-19.155-.36,4.769,4.769,0,0,1-21.187.075Zm-3.39-5.4a4.484,4.484,0,0,0,.24,1.455,4.049,4.049,0,0,0,.682,1.252,3.208,3.208,0,0,0,1.073.863,3.109,3.109,0,0,0,1.41.315,3.057,3.057,0,0,0,1.44-.33,3.144,3.144,0,0,0,1.058-.892,4.191,4.191,0,0,0,.652-1.26,4.544,4.544,0,0,0,.225-1.4,4.547,4.547,0,0,0-.233-1.448,3.867,3.867,0,0,0-.682-1.245,3.31,3.31,0,0,0-1.073-.863,3.029,3.029,0,0,0-1.388-.315,3.057,3.057,0,0,0-1.44.33,3.258,3.258,0,0,0-1.065.885,4.149,4.149,0,0,0-.667,1.245A4.388,4.388,0,0,0-24.577-5.325Zm14.67,5.4a4.725,4.725,0,0,1-2.085-.45A5,5,0,0,1-13.6-1.6a5.7,5.7,0,0,1-1.042-1.74,5.553,5.553,0,0,1-.368-1.987,5.385,5.385,0,0,1,.39-2.033,5.709,5.709,0,0,1,1.08-1.725,5.156,5.156,0,0,1,1.628-1.2,4.7,4.7,0,0,1,2.033-.442A4.61,4.61,0,0,1-7.8-10.26a5.03,5.03,0,0,1,1.6,1.245A5.9,5.9,0,0,1-5.16-7.275,5.454,5.454,0,0,1-4.792-5.31a5.478,5.478,0,0,1-.383,2.032A5.592,5.592,0,0,1-6.247-1.553,5.059,5.059,0,0,1-7.875-.36,4.769,4.769,0,0,1-9.907.075Zm-3.39-5.4a4.484,4.484,0,0,0,.24,1.455,4.049,4.049,0,0,0,.682,1.252,3.208,3.208,0,0,0,1.072.863,3.109,3.109,0,0,0,1.41.315,3.057,3.057,0,0,0,1.44-.33,3.144,3.144,0,0,0,1.058-.892,4.191,4.191,0,0,0,.652-1.26,4.544,4.544,0,0,0,.225-1.4A4.547,4.547,0,0,0-6.75-6.773a3.867,3.867,0,0,0-.682-1.245A3.31,3.31,0,0,0-8.5-8.88a3.029,3.029,0,0,0-1.388-.315,3.057,3.057,0,0,0-1.44.33A3.258,3.258,0,0,0-12.4-7.98a4.149,4.149,0,0,0-.668,1.245A4.388,4.388,0,0,0-13.3-5.325Zm16.53-2.82A2.3,2.3,0,0,0,2.8-8.5a4.226,4.226,0,0,0-.675-.352,5.164,5.164,0,0,0-.84-.27,4.079,4.079,0,0,0-.93-.105,2.559,2.559,0,0,0-1.56.39,1.284,1.284,0,0,0-.51,1.08,1.1,1.1,0,0,0,.285.8,2.151,2.151,0,0,0,.87.487q.585.2,1.47.42a10.738,10.738,0,0,1,1.875.608A2.9,2.9,0,0,1,4-4.5a2.593,2.593,0,0,1,.42,1.545,3.023,3.023,0,0,1-.3,1.395,2.531,2.531,0,0,1-.84.953,3.793,3.793,0,0,1-1.245.54A6.361,6.361,0,0,1,.518.105,7.7,7.7,0,0,1-1.065-.06a7.212,7.212,0,0,1-1.5-.488,6.527,6.527,0,0,1-1.312-.788l.765-1.44a3.316,3.316,0,0,0,.563.428,6.162,6.162,0,0,0,.855.442A6.819,6.819,0,0,0-.63-1.553,4.9,4.9,0,0,0,.548-1.41a2.787,2.787,0,0,0,1.537-.353,1.142,1.142,0,0,0,.532-1.013,1.124,1.124,0,0,0-.345-.862,2.773,2.773,0,0,0-1.005-.548q-.66-.225-1.575-.45a10.469,10.469,0,0,1-1.755-.622,2.543,2.543,0,0,1-1.057-.87,2.413,2.413,0,0,1-.352-1.358,3.019,3.019,0,0,1,.51-1.777,3.124,3.124,0,0,1,1.388-1.1A5.062,5.062,0,0,1,.4-10.725a5.738,5.738,0,0,1,1.365.157,6.157,6.157,0,0,1,1.207.427A6.278,6.278,0,0,1,4-9.525ZM13.4-1.485V0H6.1V-10.65h7.17v1.485H7.778v3.03h4.755V-4.74H7.778v3.255ZM18.847,0V-10.65h7.095v1.485H20.528v3.18h4.53V-4.59h-4.53V0Zm8.685,0V-10.65h1.68V0Zm4.08,0V-10.65h1.68v9.165h5.715V0ZM47.677-1.485V0h-7.3V-10.65h7.17v1.485h-5.49v3.03h4.755V-4.74H42.053v3.255Z" transform="translate(102 86)" fill="#232323"/>
  </g>
</svg>
